<?xml version="1.0" encoding="UTF-8"?>
<svg width="128px" height="128px" viewBox="0 0 128 128" version="1.1" xmlns="http://www.w3.org/2000/svg" xmlns:xlink="http://www.w3.org/1999/xlink">
    <title>github</title>
    <g id="github" stroke="none" stroke-width="1" fill="none" fill-rule="evenodd">
        <rect id="Rectangle" fill="#365DF2" fill-rule="nonzero" x="0" y="0" width="127.007752" height="127.007752"></rect>
        <path d="M83.1007752,123.782946 C86.5736434,123.782946 86.0775194,128 86.0775194,128 L40.9302326,128 C40.9302326,128 40.4341085,123.782946 43.9069767,123.782946 C47.1317829,123.782946 47.875969,122.294574 47.875969,120.806202 L47.627907,108.403101 C30.0155039,112.372093 26.2945736,101.457364 26.2945736,101.457364 C23.3178295,94.0155039 19.3488372,92.2790698 19.3488372,92.2790698 C13.3953488,88.3100775 19.5968992,88.3100775 19.5968992,88.3100775 C26.0465116,88.8062016 29.5193798,94.7596899 29.5193798,94.7596899 C34.9767442,104.434109 44.1550388,101.705426 47.875969,100.217054 C48.372093,96 50.1085271,93.2713178 51.8449612,91.5348837 C37.7054264,90.0465116 23.0697674,84.5891473 23.0697674,60.2790698 C23.0697674,53.3333333 25.5503876,47.627907 29.5193798,43.1627907 C28.7751938,41.6744186 26.7906977,35.2248062 30.2635659,26.5426357 C30.2635659,26.5426357 35.4728682,24.8062016 47.627907,32.9922481 C58.0465116,30.0155039 68.9612403,30.0155039 79.379845,32.9922481 C91.5348837,24.8062016 96.744186,26.5426357 96.744186,26.5426357 C100.217054,35.2248062 98.2325581,41.6744186 97.4883721,43.1627907 C101.457364,47.627907 103.937984,53.3333333 103.937984,60.2790698 C103.937984,84.5891473 89.0542636,90.0465116 74.9147287,91.5348837 C77.3953488,93.5193798 79.379845,97.4883721 79.379845,103.44186 L79.1317829,120.806202 C79.1317829,122.294574 79.875969,123.782946 83.1007752,123.782946 Z" id="Path" fill="#FFFFFF" fill-rule="nonzero"></path>
    </g>
</svg>